<?xml version="1.0" encoding="UTF-8"?>
<svg width="72px" height="82px" viewBox="0 0 72 82" version="1.1" xmlns="http://www.w3.org/2000/svg" xmlns:xlink="http://www.w3.org/1999/xlink">
    <!-- Generator: Sketch 45.1 (43504) - http://www.bohemiancoding.com/sketch -->
    <title>Group 37</title>
    <desc>Created with Sketch.</desc>
    <defs>
        <linearGradient x1="50%" y1="100%" x2="50%" y2="-24.7604188%" id="linearGradient-1">
            <stop stop-color="#FFD762" offset="0%"></stop>
            <stop stop-color="#FFBF00" offset="100%"></stop>
        </linearGradient>
        <linearGradient x1="66.1586463%" y1="50%" x2="66.1586463%" y2="-24.8146514%" id="linearGradient-2">
            <stop stop-color="#FFDC76" offset="0%"></stop>
            <stop stop-color="#FFBF00" offset="100%"></stop>
        </linearGradient>
    </defs>
    <g id="Page-1" stroke="none" stroke-width="1" fill="none" fill-rule="evenodd">
        <g id="首页-hover" transform="translate(-684.000000, -3460.000000)">
            <g id="Group-37" transform="translate(684.000000, 3460.000000)">
                <g id="Group-3-Copy" transform="translate(9.000000, 0.000000)">
                    <g id="Group-2">
                        <path d="M15.4200662,24.3702848 C13.3905507,27.5998397 10.4776908,29.8559925 7.92679062,31.1783055 C7.92679062,31.1783055 9.93522506,42.8268829 10.1423318,43.8421598 C13.1880024,43.4069795 17.6326687,41.8629741 21.3145118,37.893033 C22.7559503,32.7298016 20.9775555,27.0083253 15.4200662,24.3702848 Z" id="Path-6-Copy" fill="url(#linearGradient-1)"></path>
                        <path d="M5.14119614,22.0296749 C5.14119614,22.0296749 0.0917134148,0.0895539097 0.0917134148,0.0895539097 C11.6707103,0.851826586 21.1253839,8.42441676 24.6850562,15.7618753 C28.2447285,23.0993338 26.7580435,32.2283148 21.1253839,38.094401 C22.5139421,32.1879677 19.4433886,27.0625697 15.8447761,24.8927438 C12.2461635,22.722918 8.97006177,21.9767719 5.14119614,22.0296749 Z" id="Path-5" fill="url(#linearGradient-2)"></path>
                    </g>
                    <g id="Group-2" transform="translate(41.563564, 22.000000) scale(-1, 1) translate(-41.563564, -22.000000) translate(28.243252, 0.000000)">
                        <path d="M15.4200662,24.3702848 C13.3905507,27.5998397 10.4776908,29.8559925 7.92679062,31.1783055 C7.92679062,31.1783055 9.93522506,42.8268829 10.1423318,43.8421598 C13.1880024,43.4069795 17.6326687,41.8629741 21.3145118,37.893033 C22.7559503,32.7298016 20.9775555,27.0083253 15.4200662,24.3702848 Z" id="Path-6-Copy" fill="url(#linearGradient-1)"></path>
                        <path d="M5.14119614,22.0296749 C5.14119614,22.0296749 0.0917134148,0.0895539097 0.0917134148,0.0895539097 C11.6707103,0.851826586 21.1253839,8.42441676 24.6850562,15.7618753 C28.2447285,23.0993338 26.7580435,32.2283148 21.1253839,38.094401 C22.5139421,32.1879677 19.4433886,27.0625697 15.8447761,24.8927438 C12.2461635,22.722918 8.97006177,21.9767719 5.14119614,22.0296749 Z" id="Path-5" fill="url(#linearGradient-2)"></path>
                    </g>
                </g>
                <!-- <path d="M0,69.6608696 L0,68.226087 L21.8284531,68.226087 L21.8284531,69.6608696 L9.6804444,69.6608696 C8.22520692,73.0405966 6.2638293,75.9739006 3.79625271,78.4608696 C8.28850754,78.4608696 12.780695,78.2376834 17.2729498,77.7913043 C16.8933226,76.9623147 16.2606202,75.6869651 15.3748235,73.9652174 C15.4380947,74.0289858 15.3748244,73.9014509 15.1850108,73.5826087 L16.9882309,73.5826087 C18.5067395,76.1333461 19.6772391,78.6521615 20.4997646,81.1391304 L18.5067319,81.1391304 L18.222013,80.2782609 C18.1587418,80.0869556 18.0005662,79.7043507 17.7474814,79.1304348 C13.6348537,79.7043507 8.82631507,79.9594206 3.32172112,79.8956522 L1.80322004,79.8956522 L1.80322004,78.4608696 C4.33406783,75.6550584 6.16890495,72.7217544 7.30778646,69.6608696 L0,69.6608696 Z M2.08793899,62.8695652 L2.08793899,61.4347826 L19.7405141,61.4347826 L19.7405141,62.8695652 L2.08793899,62.8695652 Z M46.8667734,81.9043478 C44.0195696,80.3739054 42.7225296,78.0463924 42.9756143,74.9217391 L42.9756143,62.5826087 L28.834573,62.5826087 L28.834573,74.9217391 C29.0876578,78.0463924 27.8222529,80.3739054 25.0383203,81.9043478 L25.0383203,80.4695652 C26.4302866,79.5130387 27.0629891,77.9507355 26.9364467,75.7826087 L26.9364467,61.2434783 L44.968647,61.2434783 L44.968647,75.7826087 C44.8421046,77.9507355 45.4748071,79.5130387 46.8667734,80.4695652 L46.8667734,81.9043478 Z M30.4479804,80.1826087 L30.4479804,79.0347826 C32.3461163,78.0144877 33.8962373,76.9304405 35.09839,75.7826087 C33.5798813,74.060861 32.4093818,71.5101618 31.5868562,68.1304348 L33.4849826,68.1304348 C34.1176945,70.808709 35.003478,72.9449196 36.1423595,74.5391304 C37.6608682,72.6260774 38.5466516,70.0434945 38.7997364,66.7913043 L30.8276057,66.7913043 L30.8276057,65.4521739 L40.6978627,65.4521739 L40.6978627,66.7913043 C40.2549644,70.8087157 39.1160999,73.8057872 37.2812353,75.7826087 C38.1037608,76.8029037 39.5273414,77.8869508 41.5520196,79.0347826 L41.5520196,80.1826087 C39.3375278,79.2898506 37.5343258,78.2058035 36.1423595,76.9304348 C34.7503932,78.142035 32.8522858,79.2260822 30.4479804,80.1826087 Z M63.8380567,67.8434783 L63.8380567,63.6347826 L61.5603051,63.6347826 L61.5603051,68.226087 C61.4970339,69.3101503 61.9715607,69.8202902 62.9838998,69.7565217 L71.1458431,69.7565217 L71.1458431,70.9043478 L65.9259957,70.9043478 L65.9259957,73.3913043 L71.715281,73.3913043 L71.715281,74.6347826 L68.2986536,74.6347826 C68.8680944,77.0579831 70.1018642,78.90724 72,80.1826087 L72,81.426087 C69.1527962,80.0231814 67.3812294,77.7594359 66.6852462,74.6347826 L65.9259957,74.6347826 L65.9259957,82 L64.217682,82 L64.217682,74.6347826 L63.4584314,74.6347826 C62.8889907,77.7594359 61.0857887,80.0231814 58.0487713,81.426087 L58.0487713,80.5652174 L57.0997081,80.5652174 C57.0997081,80.4376805 57.068073,80.1826106 57.0048018,79.8 C57.0048018,79.5449263 56.9731667,79.3536238 56.9098955,79.226087 C55.2015732,79.672466 52.9238444,79.9913034 50.0766406,80.1826087 L50.0766406,78.8434783 C51.3420645,78.7159414 52.5125641,78.6202902 53.5881744,78.5565217 L53.5881744,74.2521739 L50.7409848,74.2521739 L50.7409848,63.0608696 L53.5881744,63.0608696 L53.5881744,60 L55.0117691,60 L55.0117691,63.0608696 L57.7640523,63.0608696 L57.7640523,71.7652174 C57.8273235,73.4869651 57.0364455,74.3159423 55.3913944,74.2521739 L55.0117691,74.2521739 L55.0117691,78.3652174 C55.6444811,78.301449 56.2455484,78.173914 56.8149892,77.9826087 C56.6884468,77.0898506 56.5302712,76.2289897 56.3404576,75.4 L57.4793334,75.4 C57.985503,76.9304424 58.3018542,78.3970944 58.4283966,79.8 C60.19999,78.6521682 61.3388545,76.9304463 61.845024,74.6347826 L58.7131155,74.6347826 L58.7131155,73.3913043 L64.217682,73.3913043 L64.217682,70.9043478 L62.5093682,70.9043478 C60.6745036,70.9681163 59.7887201,70.139139 59.8519913,68.4173913 L59.8519913,63.6347826 L58.6182092,63.6347826 L58.6182092,62.3913043 L59.8519913,62.3913043 L59.8519913,60.4782609 L61.5603051,60.4782609 L61.5603051,62.3913043 L63.8380567,62.3913043 L63.8380567,60 L65.3565578,60 L65.3565578,62.3913043 L68.108841,62.3913043 L68.108841,60 L69.7222484,60 L69.7222484,62.3913043 L71.9050937,62.3913043 L71.9050937,63.6347826 L69.7222484,63.6347826 L69.7222484,65.3565217 C69.7855196,67.014501 68.9630064,67.8434783 67.2546841,67.8434783 L63.8380567,67.8434783 Z M52.1645796,73.0086957 L53.5881744,73.0086957 L53.5881744,64.4 L52.1645796,64.4 L52.1645796,73.0086957 Z M56.4353639,64.4 L55.0117691,64.4 L55.0117691,73.0086957 L55.1066755,73.0086957 C56.0557434,73.0724641 56.4986351,72.594208 56.4353639,71.573913 L56.4353639,64.4 Z M66.7801525,66.6956522 C67.7292205,66.7594206 68.1721122,66.2811645 68.108841,65.2608696 L68.108841,63.6347826 L65.3565578,63.6347826 L65.3565578,66.6956522 L66.7801525,66.6956522 Z" id="云凤蝶" fill="#FFBF00"></path> -->
            </g>
        </g>
    </g>
</svg>